{"title":"Give.em.Hell.Malone.2009.DVDRIP.XviD-ZEKTORM","uid":5249978,"size":747281184,"categoryP":"video","categoryS":"movies","magnet":"?xt=urn:btih:90d40e07a75dd6d4374a5aaff69f0cb617e4b1a0&amp;dn=Give.em.Hell.Malone.2009.DVDRIP.XviD-ZEKTORM&amp;tr=udp%3A%2F%2Ftracker.openbittorrent.com%3A80&amp;tr=udp%3A%2F%2Fopen.demonii.com%3A1337&amp;tr=udp%3A%2F%2Ftracker.coppersurfer.tk%3A6969&amp;tr=udp%3A%2F%2Fexodus.desync.com%3A6969","seeders":0,"leechers":1,"uploader":"blowley","files":5,"time":1262292993,"description":"Title                            : Give 'em Hell, Malone\nYear                             : 2009\nGenre                            : Action | Crime | Thriller\niMDB URL                         : http://www.imdb.com/title/tt1258137/\n\nComplete name                    : Give.em.Hell.Malone.2009.DVDRIP.XviD-ZEKTORM.avi\nFormat                           : AVI\nFile size                        : 701 MiB\nDuration                         : 1h 36mn\nOverall bit rate                 : 1016 Kbps\nSubtitles                        : English, Spanish (Format: VobSub)\n\nVideo\nFormat                           : MPEG-4 Visual\nFormat profile                   : Streaming Video@L1\nCodec ID/Hint                    : XviD\nDuration                         : 1h 36mn\nBit rate                         : 894 Kbps\nWidth                            : 720 pixels\nHeight                           : 304 pixels\nDisplay aspect ratio             : 2.35\nFrame rate                       : 23.976 fps\nResolution                       : 24 bits\nColorimetry                      : 4:2:0\nScan type                        : Progressive\nBits/(Pixel*Frame)               : 0.170\nStream size                      : 617 MiB (88%)\nWriting library                  : XviD\n\nAudio\nFormat                           : MPEG Audio\nFormat version                   : Version 1\nFormat profile                   : Layer 3\nCodec ID                         : 55\nCodec ID/Hint                    : MP3\nDuration                         : 1h 36mn\nBit rate mode                    : Variable\nBit rate                         : 109 Kbps\nMinimum bit rate                 : 128 Kbps\nChannel(s)                       : 2 channels\nSampling rate                    : 48.0 KHz\nResolution                       : 16 bits\nStream size                      : 75.1 MiB (11%)\nWriting library                  : LAME3.98r\nEncoding settings                : ABR\n","torrent":{"xt":"urn:btih:90d40e07a75dd6d4374a5aaff69f0cb617e4b1a0","amp;dn":"Give.em.Hell.Malone.2009.DVDRIP.XviD-ZEKTORM","amp;tr":["udp%3A%2F%2Ftracker.openbittorrent.com%3A80","udp%3A%2F%2Fopen.demonii.com%3A1337","udp%3A%2F%2Ftracker.coppersurfer.tk%3A6969","udp%3A%2F%2Fexodus.desync.com%3A6969"],"infoHash":"90d40e07a75dd6d4374a5aaff69f0cb617e4b1a0","infoHashBuffer":{"type":"Buffer","data":[144,212,14,7,167,93,214,212,55,74,90,175,246,159,12,182,23,228,177,160]},"announce":[],"urlList":[]}}